<svg xmlns="http://www.w3.org/2000/svg" viewBox="0 0 1600 1000" preserveAspectRatio="xMidYMid slice"><defs><linearGradient id="sky" x2="0" y2="1"><stop stop-color="#252b49"/><stop offset=".6" stop-color="#927878"/><stop offset="1" stop-color="#e1ad83"/></linearGradient><linearGradient id="water" x2="0" y2="1"><stop stop-color="#324854"/><stop offset="1" stop-color="#172b36"/></linearGradient></defs><path fill="url(#sky)" d="M0 0h1600v1000H0z"/><circle cx="1140" cy="340" r="93" fill="#edc9a2" opacity=".7"/><path d="M0 570l190-135 130 55 280-270 210 220 120-75 190 155 240-190 240 265v375H0z" fill="#465366"/><path d="M425 386l175-166 124 130-99-26-40-52-36 71z" fill="#bcc0bf" opacity=".6"/><path d="M0 690l280-138 175 82 228-150 224 174 210-86 250 115 233-61v374H0z" fill="#293e4a"/><path d="M0 746q430-70 800 0t800 0v254H0z" fill="url(#water)"/><g fill="none" stroke="#a0b2b2" opacity=".13"><path d="M300 804h980M80 850h1190M420 912h1030M110 964h1100"/></g></svg>
